# xmcd
# 
# Track frame offsets:
#     150
#     11740
#     21770
#     46450
#     60950
#     80945
#     99595
#     122265
#     144555
#     164475
#     183830
#     204040
#     221175
#     249245
# 
# Disc length: 3577
# 
# Revision: 1
# Processed by: cddbd v1.5.2PL0 Copyright (c) Steve Scherf et al.
# Submitted via: BonkEnc v1.0.15
# 
DISCID=b80df70e
DTITLE=Joaquin Sabina y Fito Paez - Enemigos intimos
DYEAR=1998
DGENRE=Blues
TTITLE0=La vida moderna
TTITLE1=Lazaro
TTITLE2=Llueve sobre mojado
TTITLE3=Tengo una muñeca que regala besos
TTITLE4=Si volvieran los dragones
TTITLE5=Cecilia
TTITLE6=Delirium tremens
TTITLE7=Yo me bajo en Atocha
TTITLE8=Buenos Aires
TTITLE9=Mas guapa que cualquiera
TTITLE10=Flores en su entierro
TTITLE11=Hasta cuando?
TTITLE12=La cancion de los -buenos- borrachos
TTITLE13=Enemigos intimos
EXTD=
EXTT0=
EXTT1=
EXTT2=
EXTT3=
EXTT4=
EXTT5=
EXTT6=
EXTT7=
EXTT8=
EXTT9=
EXTT10=
EXTT11=
EXTT12=
EXTT13=
PLAYORDER=
